<?xml version="1.0" encoding="utf-8"?>
<!-- Generator: Adobe Illustrator 19.2.1, SVG Export Plug-In . SVG Version: 6.00 Build 0)  -->
<svg version="1.1" id="layer" xmlns="http://www.w3.org/2000/svg" xmlns:xlink="http://www.w3.org/1999/xlink" x="0px" y="0px"
	 viewBox="0 0 652 652" style="enable-background:new 0 0 652 652;" xml:space="preserve">
<style type="text/css">
	.st0{fill-rule:evenodd;clip-rule:evenodd;fill:#A82488;}
	.st1{fill-rule:evenodd;clip-rule:evenodd;fill:#E40073;}
	.st2{fill:#E62842;}
	.st3{fill:#E9581D;}
	.st4{fill-rule:evenodd;clip-rule:evenodd;fill:#002B57;}
	.st5{fill-rule:evenodd;clip-rule:evenodd;fill:#2C2C8B;}
	.st6{fill:#004798;}
</style>
<polygon class="st0" points="98.8,327.3 101.5,327.6 102.3,327.7 103.1,327.6 104.1,327.4 105.7,327.6 107.9,327.6 110.2,327.5 
	111,327.5 111.7,327.8 112.9,328.7 113.3,329.2 113.5,329.8 113.6,330.4 113.4,331.1 112.7,333 112.3,333.9 111.7,334.6 
	111.4,334.7 111,334.7 110,334.5 109,334.3 108.2,334.2 107.5,334.3 107,334.6 106.4,334.8 105.8,334.9 103.9,334.4 102.9,334.3 
	101.6,334.5 101.3,334.5 101,334.4 100.7,334.2 100.4,334.1 99.6,334.1 99.4,334 99.2,333.8 98.4,332.5 97.4,331.4 97,330.9 
	96.9,330.3 97.1,329.6 97.6,328.8 "/>
<path class="st1" d="M100.1,315.5l0.7,0.5l0.5,0.3l0.5,0.1l0.4-0.1l0.4-0.2l0.4-0.2l0.4-0.1l0.8,0.3l0.8,0.3l0.7-0.2l0.7-0.2
	l0.8,0.3l0.4,0.2h0.4l2.5-0.3l1.9,0.3l0.1,0.1l0,0.1l-0.1,0.2l-0.1,0.3l0.1,0.2l0.5,0.3l0.5,0.2l0.2,0.2l0.1,0.2l0,0.3l-0.1,0.5
	l-0.2,0.2l-0.3,0.2l-1.1,0.2l-3.4,0.1l-4.9-0.6l-4.3-0.8l-0.6-0.3l-0.5-0.6l-0.3-0.7l-0.1-0.6L100.1,315.5z M98.8,320.7l1.3,0.5
	l0.7,0.2l0.7,0l5.9-0.3l2.4,0.2l1.8,0.5l0.8,0.2l0.5,0.2l0.4,0.3l0.4,0.7l0.1,0.7l-0.2,0.6l-0.3,0.4v0.4l-5.7,0l-1.9,0l-1.9-0.2
	l-1.9-0.3l-1.7-0.3l-1.2-0.2l-0.5-0.1L98,324l-0.5-1l-0.2-1.1L98.8,320.7"/>
<polygon class="st2" points="107.5,308 106.2,308.3 97.6,308.1 97.2,309.9 97.3,310.8 97.5,311 97.7,311.2 105,312 109.7,312.3 
	111.5,312.3 112.5,312.1 113.1,311.6 113.5,311.1 113.7,310.6 113.6,310.1 113.4,309.6 113,309.2 112.1,308.5 110.8,308.1 
	109.1,308 "/>
<polygon class="st3" points="103.8,280.6 102.4,280.8 101.4,281.1 99.8,281.5 98.2,282.5 96.8,283.5 96.4,284.5 95.8,285.3 
	95.7,285.6 95.6,285.9 95.7,286.3 96.2,287.7 97.2,288.3 98.2,289.5 99,290.2 100.1,290.8 101.2,291.1 102.8,291.1 103.8,291.3 
	104.9,291.4 106.4,291.5 107.9,291.6 109.7,291.4 111,291.1 112.7,290.4 113.4,289.5 114.2,288.8 114.9,287.7 114.9,286.6 
	114.6,285 112.8,282.5 111.3,281.3 110.5,280.9 109.9,280.7 109.4,280.6 107.6,280.8 105.8,280.5 104.9,280.3 "/>
<polygon class="st4" points="106.8,354.5 108.6,354.7 110.5,355.4 111,355.9 111.5,356.3 112.4,356.5 112.9,356.6 113.2,356.9 
	113.7,359.1 113.7,360.4 113.5,361.6 113.1,362.3 112.5,362.9 110.9,363.9 109,364.6 106.8,364.9 104.5,364.9 102.4,364.7 
	100.5,364.2 99,363.5 98.6,363 98.3,362.5 97.9,361.4 97.7,360.1 98,358.9 98.6,358 99.4,357.2 101.3,356 103.2,355.5 105,355 "/>
<polygon class="st5" points="102.2,340.9 103.2,340.8 104.2,340.9 109.7,341.5 111.3,341.7 112.8,342.1 113.4,342.5 114,343.1 
	114.5,344 114.9,345.2 115.2,347.2 115.1,348.2 114.8,349.1 114.2,349.7 113.6,350.3 111.8,351 107,351.6 105.6,351.4 104.1,351 
	102.7,350.6 101.3,350.5 99.3,350.2 97.8,349.5 96.8,348.5 96.3,347.3 96.1,346 96.5,344.8 97.1,343.9 98,343.1 99.8,342.1 
	101.1,341.7 101.4,341.5 101.6,341.3 101.9,341.1 "/>
<path class="st6" d="M362.8,297.6l13,29.6h-26L362.8,297.6z M362.8,279.4L325.8,364h7.9l13-29.6H379L392,364h7.8L362.8,279.4z"/>
<rect x="497.6" y="281.2" class="st6" width="7.2" height="82.8"/>
<polygon class="st6" points="272.6,317.7 234.7,279.6 234.8,364 242,364 242,297.1 272.5,328 303.6,296.9 303.6,364 310.7,364 
	310.7,279.6 "/>
<polygon class="st6" points="532.2,291.3 532.2,364 539.4,364 539.4,299.8 594.9,365.7 594.9,281.2 587.7,281.2 587.7,345.7 
	532.2,279.8 "/>
<path class="st6" d="M467.6,364l8.1,0l-19.8-38.7c8.9-2.3,15.6-10,16.4-19.5h0v-0.5c0-0.4,0.1-0.9,0.1-1.3h-0.1v-0.8h0.1
	c0-0.5,0-0.9-0.1-1.3v0c-0.7-11.5-10.2-20.6-21.9-20.6h-34.7V364h7.2v-38h25.3L467.6,364z M422.7,288.4h27.6v0
	c8,0,14.6,6.4,14.7,14.5v1.4c-0.2,8-6.7,14.5-14.7,14.5v0h-27.6V288.4z"/>
<path class="st6" d="M78.8,339.6c-0.1-4-1.1-7.6-3.1-10.8c-1.9-3-4.4-5.5-7.4-7.2c4.9-3.7,8.3-9.4,8.8-15.8h0v-0.5
	c0-0.4,0.1-0.9,0.1-1.3h-0.1v-0.8h0.1c0-0.5,0-0.9-0.1-1.3v0c-0.7-11.5-10.2-20.6-21.9-20.6v0l-34.7,0V364h36.1v0
	c12.2-0.1,22.1-9.9,22.3-22h0L78.8,339.6L78.8,339.6z M55.1,288.4L55.1,288.4c8.1,0,14.6,6.5,14.7,14.5v1.3
	c-0.1,8-6.7,14.5-14.7,14.5H27.6v-30.4H55.1z M71.7,341.6L71.7,341.6c-0.1,8.4-6.9,15.2-15.3,15.2v0H27.6V326l29.8,0.1v0
	c5.2,0,9.7,2.5,12.3,6.6c1.1,2.3,1.9,4.6,1.9,7.4l0.1,0V341.6z"/>
<path class="st6" d="M131.7,328c2.7,21.1,20.6,37.4,42.4,37.4c21.8,0,39.8-16.3,42.4-37.4c0.2-1.7,0.3-3.5,0.3-5.2
	c0-1.6-0.1-3.1-0.2-4.7c-2.2-21.6-20.4-38.3-42.5-38.3c-22.1,0-40.3,16.8-42.5,38.3h0c-0.2,1.6-0.2,3-0.2,4.7
	C131.3,324.5,131.4,326.2,131.7,328 M174.1,358.1c-17.8,0-32.5-13.1-35.1-30.1h0c-0.3-1.7-0.4-3.4-0.4-5.2c0-1.6,0.1-3,0.3-4.5h0
	c2.2-17.5,17.1-31.1,35.2-31.1c18.1,0,33,13.5,35.2,31c0.2,1.5,0.3,3,0.3,4.6c0,1.8-0.1,3.5-0.4,5.3
	C206.6,345.1,191.9,358.1,174.1,358.1"/>
<path class="st6" d="M620.4,291.2c0,5.6-4.4,10-10,10c-5.7,0-10-4.4-10-10c0-5.6,4.4-10,10-10C616,281.2,620.4,285.6,620.4,291.2
	 M601.9,291.2c0,4.8,3.6,8.6,8.5,8.6c4.9,0,8.5-3.8,8.5-8.6c0-4.8-3.6-8.6-8.5-8.6C605.5,282.6,601.9,286.4,601.9,291.2 M608.2,297
	h-1.4v-11.6h4.5c2.6,0,3.8,1.1,3.8,3.2c0,2-1.4,3-2.9,3.2l3.4,5.2h-1.7l-3.3-5.2h-2.4V297z M610.1,290.6c1.8,0,3.5-0.1,3.5-2
	c0-1.6-1.3-2-2.7-2h-2.6v4H610.1z"/>
</svg>
