<svg version="1.1" id="Layer_1" xmlns="http://www.w3.org/2000/svg" xmlns:xlink="http://www.w3.org/1999/xlink" x="0px" y="0px" viewBox="0 0 637.6 566.2" style="enable-background:new 0 0 637.6 566.2;" xml:space="preserve">
 <style type="text/css">
  .st0{fill:#007AC2;}
 </style>
 <g id="Group_458" transform="translate(-5246.114 9785.88)">
  <path id="Path_488" class="st0" d="M5883.7-9785.9l-98.2,137.8c-524.4,179.7-536.3,346.2-527.6,370.3
		c-25.6-48.9-9.1-116.5,45.2-180.5c86.3-102,233.4-182.8,320.6-223.7C5623.7-9682,5782.9-9754.4,5883.7-9785.9z">
  </path>
  <path id="Path_489" class="st0" d="M5719.2-9555.1c0,0-504.7,172.3-444.8,301.2c3.4,6.4,8.1,11.9,13.8,16.3
		c-21.8-29.7,38.7-116,362.8-221.7L5719.2-9555.1">
  </path>
  <path id="Path_490" class="st0" d="M5479.3-9345.6c-75.7,21.6-208.8,80.7-172,120.8c2,2,4.2,3.7,6.6,5.1
		c-32-31.3,165.1-76.4,227.2-85.5l51.4-72.1C5567.5-9371.6,5486.4-9347.6,5479.3-9345.6z">
  </path>
 </g>
</svg>