<svg width="37" height="38" viewBox="0 0 37 38" fill="none" xmlns="http://www.w3.org/2000/svg">
<g clip-path="url(#clip0_215_4883)">
<path d="M24.9707 17.1649C22.1024 17.1649 19.2342 17.1665 16.3665 17.1621C16.0633 17.1621 15.7561 17.1515 15.4579 17.1013C14.0323 16.8628 13.8082 15.1847 14.4247 14.3788C14.8679 13.7997 15.4208 13.5628 16.1452 13.5723C18.672 13.6057 21.1988 13.6152 23.7255 13.6152C26.8057 13.6152 29.8859 13.5963 32.9661 13.5857C33.3894 13.584 33.8167 13.545 34.2356 13.5862C34.9306 13.6548 35.4901 13.9914 35.7663 14.6586C36.0468 15.3368 35.9511 15.9844 35.4591 16.5552C35.1702 16.8901 34.7984 17.074 34.3745 17.0974C33.8144 17.1281 33.2511 17.1025 32.6888 17.1025C30.1156 17.1025 27.5428 17.1025 24.9696 17.1025C24.9696 17.1231 24.9696 17.1437 24.9696 17.1649H24.9707ZM18.5845 14.9132C18.2414 14.9149 18.0776 15.0788 18.0782 15.4188C18.0787 15.7047 18.2641 15.8613 18.5928 15.8524C18.8878 15.8446 19.1136 15.6434 19.113 15.3892C19.1125 15.1267 18.8734 14.9121 18.5845 14.9132ZM16.8701 15.4087C16.8701 15.032 16.7379 14.862 16.4484 14.8648C16.1297 14.8681 15.91 15.0699 15.9067 15.3625C15.9033 15.6361 16.1302 15.8635 16.4136 15.8696C16.6986 15.8763 16.8701 15.703 16.8701 15.4087Z" fill="#0575E6"/>
<path d="M16.0051 21.7119C16.8225 22.082 17.6138 22.408 18.3758 22.7926C20.3083 23.7679 22.0736 25.0158 23.8616 26.2291C24.8522 26.9012 25.8898 27.5048 26.9158 28.1235C27.6186 28.547 28.3363 28.945 29.0508 29.3485C29.2052 29.4354 29.24 29.5385 29.1537 29.6879C29.0707 29.8317 29.0032 29.9894 28.898 30.1148C28.3098 30.8148 27.7259 31.5199 27.1106 32.1959C26.84 32.4935 26.5101 32.7426 26.1825 32.979C26.0702 33.0603 25.8693 33.0871 25.731 33.0514C24.7183 32.7878 23.8644 32.2148 23.0752 31.5555C21.5097 30.2486 20.155 28.7237 18.7593 27.2418C17.6808 26.0959 16.61 24.9417 15.3676 23.9697C15.1617 23.8086 15.1263 23.6737 15.273 23.4469C15.6044 22.9347 15.9022 22.4019 16.004 21.7119H16.0051Z" fill="#0575E6"/>
<path d="M16.3599 19.2441C16.894 19.3027 17.3992 19.2982 17.8712 19.4214C19.2232 19.7747 20.5729 20.1459 21.9038 20.5728C24.1207 21.2845 26.321 22.0509 28.5312 22.7838C29.5273 23.1143 30.5323 23.4191 31.5317 23.7385C31.7155 23.797 31.8959 23.8672 32.0757 23.938C32.4011 24.0662 32.4598 24.21 32.2943 24.5277C31.7276 25.6189 31.1643 26.7124 30.5788 27.7936C30.4261 28.0756 30.2102 28.3264 29.9994 28.57C29.9479 28.6296 29.7802 28.6497 29.7011 28.6129C28.0182 27.8243 26.4245 26.8768 24.8966 25.8184C22.8081 24.3716 20.7306 22.9069 18.4656 21.746C17.7888 21.3988 17.1186 21.0098 16.3594 20.9362V19.2441H16.3599Z" fill="#0575E6"/>
<path d="M14.5331 24.3936C15.3051 25.127 16.1053 25.8409 16.8529 26.6078C18.0471 27.8334 19.2015 29.0986 20.3813 30.3381C21.5208 31.5347 22.7521 32.6215 24.1937 33.4424C24.4715 33.6007 24.772 33.7188 25.1106 33.8788C24.949 34.0254 24.8029 34.1541 24.6613 34.2868C23.8013 35.0927 22.8135 35.6963 21.736 36.1544C20.8766 36.52 20.0963 36.2163 19.3852 35.7698C18.4572 35.1869 17.7328 34.3592 17.1562 33.4385C16.1689 31.8624 15.2265 30.2567 14.3145 28.6354C13.8441 27.7989 13.4822 26.9004 13.0649 26.0332C12.9603 25.8153 12.9642 25.6838 13.2105 25.5489C13.5231 25.3778 13.8092 25.1493 14.0854 24.9197C14.2426 24.7887 14.356 24.6053 14.5331 24.3936Z" fill="#0575E6"/>
<path d="M12.1166 26.2432C12.1625 26.3663 12.2157 26.5235 12.2798 26.6762C13.4818 29.5353 14.9793 32.2239 16.8918 34.6639C17.5155 35.4598 18.2465 36.1603 19.1303 36.672C19.3671 36.8091 19.6267 36.9061 19.936 37.0493C19.4878 37.2187 19.0976 37.4194 18.6837 37.5108C17.8774 37.6885 17.0623 37.8507 16.2421 37.9354C15.0529 38.0586 14.0944 37.5464 13.3014 36.6803C12.5455 35.8549 12.0369 34.879 11.6263 33.8496C10.7431 31.6354 10.3529 29.3235 10.3247 26.9443C10.3236 26.8612 10.3247 26.7782 10.3247 26.7214C10.9251 26.5614 11.5045 26.407 12.1166 26.2443V26.2432Z" fill="#0575E6"/>
<path d="M33.9918 18.0957C33.8651 18.7935 33.7644 19.5091 33.6006 20.2102C33.4219 20.9766 33.2049 21.7351 32.9681 22.4858C32.7799 23.0833 32.6814 23.1217 32.0821 22.9228C30.4136 22.3693 28.7479 21.807 27.0822 21.2452C25.6251 20.7536 24.1741 20.2425 22.7109 19.7699C21.7912 19.4729 20.8648 19.1808 19.9218 18.9785C18.8521 18.7489 17.762 18.6129 16.6779 18.4557C16.4576 18.424 16.379 18.3582 16.4526 18.0957H33.9913H33.9918Z" fill="#0575E6"/>
<path d="M9.39184 26.7307C9.32322 28.0388 9.43279 29.3519 9.67628 30.6477C10.0625 32.7059 10.7034 34.6761 11.9291 36.3982C12.2905 36.9059 12.7659 37.3312 13.1925 37.791C13.2346 37.8367 13.301 37.8601 13.3558 37.8941C13.342 37.9275 13.3287 37.9615 13.3148 37.9955C13.0935 37.9955 12.8721 38.0067 12.6519 37.9939C11.6132 37.9314 10.6159 37.6918 9.64695 37.3078C8.25185 36.7543 7.44832 35.6715 6.97241 34.3015C6.34873 32.508 6.46329 30.6861 6.81192 28.8597C6.96632 28.0527 7.32602 27.3354 7.76431 26.6555C7.81301 26.5797 7.96077 26.5189 8.05374 26.5295C8.48981 26.5797 8.92256 26.6577 9.39184 26.7307Z" fill="#0575E6"/>
<path d="M4.81948 19.8314C3.79072 19.0037 2.63192 18.8599 1.32812 19.1431C1.42109 18.943 1.47035 18.7975 1.55004 18.6721C2.52622 17.1339 3.8693 16.0688 5.61858 15.57C7.34461 15.0779 9.70704 15.91 10.4641 17.7386C10.821 18.6013 10.8647 19.4663 10.3573 20.3006C10.1569 20.6295 9.99314 20.9862 9.7574 21.2866C9.19072 22.0083 8.44641 22.3371 7.53497 22.1098C6.52559 21.8584 6.02698 20.8987 6.40661 19.9869C6.4625 19.8531 6.5444 19.7205 6.64457 19.6174C6.8543 19.4011 7.07898 19.4507 7.20515 19.7249C7.29812 19.9267 7.3767 20.1357 7.47521 20.3346C7.61909 20.625 7.91847 20.6534 8.12378 20.4049C8.46744 19.9891 8.51891 19.2094 8.23169 18.7808C7.95721 18.3712 7.21567 18.1226 6.72093 18.2725C6.14817 18.4458 5.67613 18.7658 5.30702 19.2423C5.15428 19.4396 4.98937 19.6263 4.81948 19.8308V19.8314Z" fill="#0575E6"/>
<path d="M6.63977 35.8052C4.90655 35.0021 3.61548 33.8244 2.71456 32.2299C2.54743 31.934 2.44506 31.5711 2.41739 31.2306C2.23975 29.0709 2.94754 27.2345 4.5081 25.747C4.76764 25.4996 5.12237 25.3524 5.43891 25.1691C5.59275 25.0799 5.70786 25.13 5.84731 25.2588C6.19042 25.5748 6.56506 25.8557 6.94414 26.1639C5.93973 27.5561 5.67023 29.2047 5.56785 30.8867C5.46381 32.5916 5.77039 34.2263 6.64032 35.8052H6.63977Z" fill="#0575E6"/>
<path d="M5.01448 24.3853C4.18771 24.6423 3.50317 25.2124 2.98242 25.9615C2.63102 26.467 2.31725 27.0115 2.0732 27.5772C1.72124 28.3931 1.43901 29.2414 1.43459 30.1521C1.43459 30.195 1.42296 30.2384 1.40692 30.351C1.32114 30.2368 1.2575 30.1755 1.22153 30.1002C0.640468 28.8869 0.234831 27.6229 0.141308 26.2691C0.111425 25.8355 0.228744 25.4543 0.456188 25.0837C0.918824 24.3302 1.46004 23.6647 2.24033 23.2227C2.86953 22.866 3.53416 22.7696 4.24084 22.8978C4.43619 22.9335 4.51919 23.031 4.57841 23.2239C4.69573 23.6067 4.85732 23.9757 5.01393 24.3853H5.01448Z" fill="#0575E6"/>
<path d="M4.36817 22.0351C3.52425 21.8663 2.69693 21.9058 1.9089 22.3272C1.14079 22.7379 0.60289 23.3922 0.0389838 24.1179C0.0185083 23.9858 -0.00252064 23.9195 0.000246317 23.8543C0.050605 22.6788 0.260341 21.5346 0.694754 20.4389C0.730724 20.3481 0.823694 20.2572 0.91279 20.2143C2.05222 19.6676 3.15569 19.7439 4.21654 20.4317C4.3322 20.5064 4.44399 20.5877 4.54249 20.6552C4.48438 21.1144 4.42794 21.5608 4.36817 22.0346V22.0351Z" fill="#0575E6"/>
<path d="M18.5845 14.9131C18.8734 14.9114 19.1119 15.1266 19.113 15.3891C19.1135 15.6432 18.8877 15.8444 18.5928 15.8522C18.2646 15.8611 18.0787 15.7051 18.0781 15.4186C18.0776 15.0792 18.2414 14.9153 18.5845 14.9131Z" fill="white"/>
<path d="M16.8698 15.4092C16.8698 15.7035 16.6982 15.8768 16.4132 15.8702C16.1293 15.8635 15.9024 15.6366 15.9063 15.363C15.9102 15.0709 16.1299 14.8692 16.4481 14.8653C16.738 14.8619 16.8698 15.0325 16.8698 15.4092Z" fill="white"/>
</g>
<defs>
<clipPath id="clip0_215_4883">
<rect width="36.96" height="37.8" fill="white" transform="translate(0 0.200195)"/>
</clipPath>
</defs>
</svg>
